<?xml version="1.0" encoding="UTF-8"?><svg id="b" xmlns="http://www.w3.org/2000/svg" width="149.053" height="412.09" viewBox="0 0 149.053 412.09"><defs><style>.d{fill:#3d8dcc;}.e{fill:#fff;}.f{fill:none;}.g{fill:#211715;}.h{fill:#ffda71;}.i{fill:#645d5c;}</style></defs><g id="c"><path class="e" d="M113.609,405.797c-6.076.159-10.577.008-17.2.274-5.411.217-9.27-4.079-9.227-9.428.035-4.475,1.254-8.194,1.979-12.454,7.508-.117,19.093-1.501,25.432-3.157,6.896.994,13.838,2.607,20.237,4.501,3.534,1.046,7.953,2.724,10.284,5.539,3.786,4.573,1.969,12.419-4.509,13.677-3.12.606-7.747.355-10.917.481-3.91.156-9.357.317-13.267.474-.98.039-1.913.07-2.812.093Z"/><path class="g" d="M87.438,382.375c-1.032,7.783-5.516,18.131,2.465,23.813,3.651,2.599,8.208,1.786,12.409,1.732,4.622-.06,9.244-.028,13.864-.206,4.384-.169,8.769-.302,13.153-.469,4.036-.154,8.315.328,12.269-.671,6.812-1.722,9.569-10.271,5.673-15.942-2.614-3.805-7.323-5.638-11.575-6.927-5.566-1.688-11.249-3.022-16.977-4.029-1.063-.187-2.155.286-2.46,1.397-.265.965.327,2.272,1.397,2.46,4.628.814,9.214,1.854,13.744,3.102,3.593.989,7.372,1.976,10.46,4.154,2.218,1.564,3.528,4.02,3.162,6.766-.304,2.287-1.802,4.341-4.042,5.039-3.329,1.036-7.179.532-10.617.616-3.958.097-7.916.272-11.873.416-4.161.152-8.316.243-12.48.264-2.027.01-4.055.025-6.082.071-1.844.042-3.85.374-5.657-.096-3.274-.852-5.088-3.972-5.089-7.222-.001-4.825,1.625-9.512,2.255-14.268.142-1.073-1.021-2-2-2-1.199,0-1.857.924-2,2h0Z"/><path class="e" d="M45.238,37.07c4.331-6.165,13-12.108,30.328-12.108,28.333,0,25.961,20.424,25.961,20.424-.375,4.836-.538,9.664-.785,14.111-.429,7.712-2.393,14.772-7.529,19.459-4.235,3.864-8.773,6.059-14.041,6.699-1.131,2.892,1.631,4.409,3.73,5.131.936.413,2.223.878,3.611,1.355-2.59,3.295-6.491,5.371-10.437,6.111-5.08.95-9.86.67-14.89-.53-5.048-1.225-10.21-3.883-14.276-7.598,1.925-.927,3.559-2.08,4.155-3.517.445-1.072.698-2.218.867-3.367.281-1.908.335-3.05.417-5.967-1.947-1.814-3.559-3.698-5.074-5.699,0,0-3.565-4.902-2.089-3.95-1.981.32-4.188-.294-5.069-.762-2.798-1.495-4.196-3.766-5.122-5.409-1.314-2.324-2.061-6.31-1.125-8.709.314-.802,1.124-2.218,3.514-2.714,1.098-.228,2.448-.122,3.557.584,0,0-.37-6.9,4.297-13.543Z"/><path class="g" d="M50.301,78.796c-.033.913-.072,1.826-.159,2.735-.018.194-.039.387-.061.581-.009.079-.073.574-.054.438-.026.186-.142.895-.217,1.262-.109.528-.242,1.052-.413,1.564-.025.073-.281.701-.115.348-.06.127-.126.251-.198.371-.061.101-.33.452-.021.07-.095.118-.194.231-.298.341-.22.232-.459.443-.705.645.35-.287-.091.059-.137.09-.144.1-.29.196-.438.289-.308.193-.624.373-.945.543-.333.177-.673.342-1.016.499-.175.08-.35.158-.527.234.339-.146-.169.067-.237.094-1.421.567-2.88,1.03-4.343,1.475-1.033.314-1.688,1.399-1.397,2.46.281,1.023,1.423,1.712,2.46,1.397,3.316-1.007,6.836-2.095,9.534-4.358,1.499-1.257,2.225-2.999,2.628-4.878.435-2.035.585-4.128.659-6.202.039-1.08-.947-2-2-2-1.116,0-1.961.916-2,2h0Z"/><path class="g" d="M76.909,86.893c.032,1.976,1.161,3.492,2.754,4.56.683.457,1.45.783,2.212,1.08.155.06.503.166.155.04.26.095.512.219.769.324.322.133.647.26.973.383,2.96,1.118,6.015,1.973,8.96,3.131,1.006.395,2.196-.434,2.46-1.397.312-1.135-.388-2.063-1.397-2.46-2.645-1.04-5.379-1.839-8.053-2.798-.58-.208-1.154-.429-1.728-.653-.513-.201.369.16-.104-.044-.239-.103-.48-.196-.723-.289-.139-.053-.279-.103-.417-.16.342.142-.048-.027-.112-.06-.307-.156-.61-.312-.899-.499-.039-.025-.427-.313-.248-.167s-.178-.168-.21-.2c-.047-.046-.371-.465-.145-.133-.065-.096-.121-.198-.183-.296-.09-.181-.104-.207-.042-.077.058.132.054.101-.012-.092l-.038-.174c.031.232.04.226.026-.019-.018-1.081-.907-2-2-2-1.071,0-2.018.915-2,2h0Z"/><path class="i" d="M31.109,27.05c-.218.832-.415,1.683-.594,2.557-.625,3.06-.791,6.2-.455,9.297.353,3.237.916,10.738,3.384,14.923.251-.638.425-1.085.425-1.085.314-.802,1.124-2.218,3.514-2.714,1.098-.228,2.448-.122,3.557.584l9.256-1.946c3.181-5.587,7.595-10.376,12.787-13.874,1.654-1.114,3.725-2.12,5.499-1.24,1.362.676,2.08,2.254,2.648,3.733.137.358.305.754.643.897.308.13.655.006.965-.119,4.371-1.75,8.741-3.5,13.112-5.25l6.992.494c4.154.888,11.442,8.382,8.678,14.592,1.049-6.467.722-14.192-.412-19.265-1.208-5.402-4.028-11.404-7.771-15.458-6.484-7.022-15.89-11.069-27.38-11.165-7.252-.06-14.436,1.582-22.018,7.446,0,0-2.357,1.823-4.714,3.646l-.89.893c-3.846,3.859-5.923,8.097-7.224,13.052Z"/><path class="g" d="M36.919,12.584c-5.781,5.885-8.801,14.161-9.018,22.357-.091,3.414.406,6.934.918,10.306.517,3.406,1.269,7,3.126,9.957,1.366,2.175,4.828.17,3.454-2.019-1.643-2.616-2.231-5.822-2.697-8.832-.454-2.929-.842-5.982-.81-8.945.08-7.29,2.713-14.761,7.855-19.996,1.806-1.838-1.021-4.669-2.828-2.828h0Z"/><path class="g" d="M80.671,69.342c-.126.074-.254.144-.386.208-.064.031-.151.054-.207.096.329-.245.286-.118.095-.046-.311.116-.63.212-.953.291-.189.047-.38.088-.571.123-.086.016-.173.03-.259.045-.271.048.038-.013.138-.015-.374.009-.748.074-1.125.081-.345.007-.691-.003-1.035-.032-.083-.007-.167-.018-.25-.025-.265-.023.421.075.166.02-.174-.038-.35-.064-.523-.107-.155-.038-.307-.083-.458-.135-.089-.031-.177-.066-.266-.099-.227-.085-.063-.012.067.03-.549-.18-1.08-.477-1.617-.692-.974-.389-2.239.424-2.46,1.397-.263,1.155.354,2.043,1.397,2.46.356.142-.201-.094.025.008.094.043.19.084.285.125.321.142.643.281.967.416.362.151.727.285,1.11.373.885.202,1.816.286,2.723.257,1.765-.058,3.614-.429,5.154-1.326.904-.526,1.302-1.83.718-2.736-.588-.912-1.769-1.281-2.736-.718h0Z"/><path class="g" d="M71.022,54.698c.338-1.588-.287-5.116-3.242-5.158-3.868.367-3.692,4.684-2.21,6.59,1.214,1.56,4.411,1.97,5.452-1.431Z"/><path class="g" d="M94.064,53.378c.302-1.591-.289-5.132-2.996-5.19-3.541.349-3.359,4.679-1.991,6.598,1.12,1.571,4.051,1.997,4.987-1.408Z"/><path class="g" d="M79.282,59.497c.298.444.586.896.868,1.35.301.486.631.983.859,1.509l-.202-.478c.039.1.07.199.088.304l-.071-.532c.006.061.008.115.003.176l.071-.532c-.004.038-.013.074-.025.11l.202-.478c-.025.058-.05.1-.088.15l.313-.405c-.084.093-.172.18-.27.259l.405-.313c-.096.073-.196.134-.305.185l.478-.202c-.238.1-.486.116-.736.166-.472.096-.958.515-1.195.919-.251.429-.357,1.061-.202,1.541.157.484.457.951.919,1.195.494.261.991.313,1.541.202.197-.04.399-.051.592-.112.562-.178,1.005-.447,1.438-.844.556-.51.913-1.255.859-2.019-.043-.616-.252-1.141-.547-1.678-.47-.856-.996-1.684-1.54-2.495-.291-.435-.68-.777-1.195-.919-.479-.132-1.116-.072-1.541.202-.427.275-.803.685-.919,1.195-.115.506-.097,1.095.202,1.541h0Z"/><path class="g" d="M56.437,78.127c-.559-.425.271.221-.272-.21-.165-.13-.328-.261-.491-.394-.292-.238-.581-.48-.866-.727-.575-.497-1.135-1.012-1.68-1.543-1.038-1.013-2.016-2.085-2.943-3.201-.217-.262-.432-.526-.644-.793-.116-.145-.23-.292-.344-.437-.134-.17.131.177-.084-.11-.172-.229-.339-.462-.504-.696-.619-.877-1.238-1.765-1.76-2.704-.509-.915-1.842-1.294-2.736-.718-.926.597-1.262,1.757-.718,2.736,1.099,1.976,2.523,3.816,3.962,5.551,2.088,2.518,4.457,4.723,7.061,6.699.837.635,2.273.159,2.736-.718.557-1.055.176-2.058-.718-2.736h0Z"/><path class="g" d="M44.947,11.186c4.748-3.63,10.156-6.227,16.138-6.929,5.515-.647,11.259-.142,16.569,1.476,4.864,1.482,9.383,4.04,13.034,7.593,4.033,3.925,6.718,9.103,8.163,14.512,1.665,6.228,1.736,13.201.737,19.543-.168,1.066.273,2.151,1.397,2.46.95.261,2.291-.324,2.46-1.397,1.968-12.495.282-26.627-8.435-36.394C87.054,3.135,74.659-.654,62.958.092c-7.382.47-14.164,3.156-20.03,7.641-.857.655-1.311,1.722-.718,2.736.493.843,1.873,1.378,2.736.718h0Z"/><path class="g" d="M61.409,84.833c8.604,3.389,18.314,4.458,26.793.104,3.973-2.04,7.621-5.119,10.021-8.905,2.413-3.808,3.581-8.246,4.16-12.675.776-5.941.69-11.999,1.144-17.971.195-2.567-3.806-2.555-4,0-.378,4.973-.484,9.961-.837,14.935-.289,4.074-1.054,8.271-2.924,11.939-3.61,7.079-11.416,11.393-19.239,11.585-4.877.119-9.542-1.091-14.054-2.868-1.005-.396-2.196.434-2.46,1.397-.312,1.135.388,2.063,1.397,2.46h0Z"/><path class="g" d="M41.95,48.886c-2.612-1.541-6.116-1.164-8.381.848-1.74,1.546-2.226,4.007-2.1,6.238.281,4.982,3.168,10.475,7.814,12.704,2.608,1.251,5.975,1.489,8.571.118,2.277-1.203.258-4.656-2.019-3.454-.358.189-.921.328-1.303.357-.561.043-1.25,0-1.616-.06-.543-.091-1.056-.256-1.582-.41-.4-.117.237.164-.094-.034-.285-.171-.583-.317-.864-.497-1.865-1.194-3.19-3.023-4.059-5.06-.357-.837-.701-2.162-.807-3.152-.071-.657-.09-1.336-.022-1.994.027-.257.025-.249.116-.601.043-.169.403-.976.079-.339.079-.155.158-.306.241-.459.05-.092.336-.416.045-.092.432-.481.4-.479.962-.747.838-.401,2.009-.496,3.001.089,2.222,1.311,4.237-2.145,2.019-3.454h0Z"/><path class="g" d="M103.887,42.8c-.595-2.827-2.265-5.408-4.255-7.459-1.674-1.726-3.861-3.424-6.258-3.961-1.019-.228-2.212.309-2.46,1.397-.231,1.014.305,2.216,1.397,2.46.207.046.411.103.612.171.099.033.195.077.295.108.143.056.067.023-.227-.099.068.029.136.06.203.091.436.202.855.439,1.259.697.219.14.433.287.644.439.213.154.274.162.025.011.133.081.255.203.375.302.457.38.893.786,1.307,1.213.403.416.843.853,1.167,1.335-.286-.425.028.045.091.132.087.121.173.244.257.368.182.268.355.541.519.82.15.256.293.517.426.783.066.132.13.265.192.399.058.127.289.446.031.062.316.47.429,1.25.544,1.795.216,1.025,1.476,1.715,2.46,1.397,1.083-.35,1.628-1.362,1.397-2.46h0Z"/><path class="g" d="M85.319,30.886c-2.336.935-4.672,1.871-7.008,2.806l-3.391,1.358c-1.079.432-2.213,1.055-3.36,1.26h1.063c.409.534.531.625.368.274-.066-.173-.136-.344-.207-.515-.137-.332-.276-.663-.429-.987-.273-.579-.597-1.11-.988-1.616-.868-1.124-2.034-1.917-3.447-2.156-2.984-.505-5.7,1.482-7.936,3.191-4.681,3.578-8.573,8.052-11.513,13.158-1.287,2.235,2.168,4.251,3.454,2.019,1.86-3.23,4.102-6.187,6.764-8.799,1.245-1.222,2.564-2.38,3.969-3.416,1.151-.848,2.917-2.417,4.463-2.24,1.487.171,1.836,2.254,2.394,3.345,1.017,1.987,2.889,1.773,4.661,1.064,4.069-1.629,8.139-3.258,12.208-4.888,1.002-.401,1.706-1.335,1.397-2.46-.262-.952-1.452-1.801-2.46-1.397h0Z"/><path class="e" d="M128.985,143.127c-2.041-10.222-5.643-21.485-12.086-30.46-6.443-8.975-14.044-15.673-25.863-19.814-1.374-.481-2.722-.944-4.037-1.393-2.558,3.694-6.716,6.002-10.923,6.792-5.08.95-9.86.67-14.89-.53-5.401-1.31-10.932-4.261-15.111-8.394-17.879,6.075-30.711,15.076-37.087,31.104-6.84,17.195-6.626,41.042-3.447,59.273.739,4.24,3.581,11.063,5.642,14.841,2.685,4.922,7.709,10.558,12.9,14.937l3.343,5.945c21.247,1.385,55.534.404,77.515-1.355,2.478-.198,4.339-2.329,4.201-4.811-.514-9.218-1.674-28.813-1.792-31.647l-.058-1.406c.49.358.981.716.981.716,3.839,2.802,9.756,3.409,14.303.663,3.716-2.247,6.418-6.352,7.621-12.357l1.382-7.082-2.594-15.02Z"/><path class="d" d="M105.746,218.701c-.076-.848-.152-1.697-.229-2.548,0,0-.071-.794-.188-2.129-.128.021-.257.037-.389.048-20.53,1.643-51.795,2.607-73.144,1.599.003,56.128.004,112.256.004,168.384,19.347,0,52.919,0,52.919,0,7.397.754,27.803-1.613,33.114-4.108-3.455-59.414-7.254-107.268-12.088-161.246Z"/><path class="g" d="M103.518,216.153c1.839,20.482,3.611,40.97,5.254,61.468,1.653,20.628,3.173,41.267,4.547,61.915.83,12.473,1.608,24.949,2.341,37.427.15,2.558,4.151,2.576,4,0-1.273-21.653-2.683-43.298-4.256-64.931-1.478-20.326-3.099-40.641-4.826-60.948-.99-11.647-2.015-23.291-3.06-34.933-.097-1.076-.85-2-2-2-1.007,0-2.097.918-2,2h0Z"/><path class="g" d="M84.72,386.055c5.596.543,11.413-.133,16.969-.792,3.199-.379,6.395-.831,9.559-1.441,2.244-.432,4.537-.898,6.666-1.749,1.002-.401,1.706-1.336,1.397-2.46-.262-.953-1.451-1.8-2.46-1.397-4.824,1.928-10.374,2.49-15.491,3.085-5.452.635-11.152,1.286-16.64.753-1.077-.104-2,.994-2,2,0,1.169.92,1.895,2,2h0Z"/><path class="g" d="M49.529,86.117c-9.083,2.782-18.137,6.418-25.804,12.13-7.055,5.257-12.619,12.096-16.069,20.211-4.144,9.748-5.714,20.489-6.141,31.013-.224,5.538-.099,11.091.329,16.616.394,5.091.85,10.355,2.013,15.337,1.187,5.085,3.351,10.259,5.962,14.777,3.248,5.62,7.928,10.516,12.85,14.695,1.951,1.657,4.794-1.159,2.828-2.828-4.205-3.571-8.17-7.616-11.207-12.242-2.531-3.855-4.372-8.264-5.779-12.642s-1.901-9.091-2.362-13.67c-.53-5.266-.784-10.563-.737-15.856.091-10.195,1.223-20.555,4.586-30.228,2.751-7.912,7.424-14.851,13.857-20.232,7.693-6.435,17.242-10.316,26.737-13.224,2.454-.752,1.408-4.614-1.063-3.857h0Z"/><path class="g" d="M80.234,91.251c5.009,1.749,10.196,3.201,15.013,5.446,4.001,1.864,7.765,4.234,11.093,7.139,7.137,6.228,12.499,14.333,15.939,23.124,2.114,5.401,3.633,11.017,4.776,16.698.508,2.522,4.364,1.454,3.857-1.063-2.12-10.529-5.55-21.146-11.677-30.067-5.314-7.737-12.145-14.373-20.581-18.612-5.529-2.779-11.532-4.488-17.358-6.521-2.435-.85-3.482,3.013-1.063,3.857h0Z"/><path class="g" d="M85.288,90.452c-4.212,5.875-12.065,6.869-18.751,6.192-7.12-.721-13.908-3.721-19.047-8.726-1.845-1.797-4.677,1.029-2.828,2.828,6.05,5.892,13.971,9.204,22.337,9.942,8.16.719,16.758-1.262,21.744-8.216.63-.878.153-2.227-.718-2.736-1.006-.589-2.105-.163-2.736.718h0Z"/><path class="g" d="M107.263,178.65c4.795,3.398,11.7,3.652,16.66.451,4.622-2.983,7.117-8.089,8.202-13.34.519-2.512-3.335-3.587-3.857-1.063-.845,4.086-2.543,8.378-6.142,10.803-3.898,2.627-9.048,2.387-12.845-.304-.882-.625-2.225-.157-2.736.718-.586,1.002-.166,2.11.718,2.736h0Z"/><path class="g" d="M105.35,177.614c.225,5.304.584,10.605.89,15.904.207,3.582.414,7.164.619,10.746.086,1.506.181,3.012.256,4.519s-.393,2.904-2.046,3.259c-1.625.349-3.457.286-5.115.401-2.017.14-4.034.268-6.052.386-4.214.247-8.43.453-12.647.625-8.882.362-17.77.58-26.659.621-9.057.042-18.128-.066-27.169-.649-2.57-.166-2.56,3.835,0,4,17.432,1.124,34.995.763,52.437.083,8.346-.325,16.765-.588,25.078-1.438,2.125-.217,4.016-1.206,5.188-3.04,1.045-1.635,1.034-3.399.929-5.254-.199-3.526-.403-7.052-.606-10.578-.377-6.526-.825-13.054-1.102-19.586-.109-2.564-4.109-2.578-4,0h0Z"/><path class="f" d="M55.018,213.174c-3.801-.001-9.734-.004-15.883-.011-1.868-.002-3.436,1.217-3.995,2.898h23.843c-.554-1.672-2.106-2.886-3.965-2.886Z"/><path class="e" d="M24.684,278.248h10.223v-60.863c0-.466.094-.906.233-1.324h-10.456v62.187Z"/><path class="i" d="M69.437,211.291c0-4.136-3.353-7.49-7.49-7.49h-29.774c-4.136,0-7.489,3.353-7.489,7.489v4.769h10.456c.559-1.68,2.127-2.9,3.995-2.898,6.149.007,12.081.01,15.883.011,1.859,0,3.412,1.214,3.965,2.886h10.454v-4.769Z"/><path class="e" d="M58.983,216.061c.138.418.231.857.231,1.321,0,12.88,0,60.866,0,60.866h10.223v-62.187h-10.454Z"/><path class="g" d="M71.437,278.248c0-9.995,0-19.991,0-29.986,0-12.014,0-24.027,0-36.041,0-2.641-.571-5.099-2.347-7.169-1.797-2.094-4.418-3.179-7.142-3.25-3.413-.089-6.84,0-10.254,0-3.226,0-6.452,0-9.678,0-3.38,0-6.811-.173-10.186.008-5.127.274-9.056,4.409-9.147,9.526-.183,10.389,0,20.797,0,31.187,0,11.698,0,23.395,0,35.093v.632c0,2.574,4,2.578,4,0,0-9.623,0-19.246,0-28.869,0-12.149,0-24.299,0-36.448,0-1.301-.091-2.615.448-3.841,1-2.275,3.163-3.276,5.534-3.288,3.322-.017,6.644,0,9.965,0,6.431,0,12.887-.167,19.316,0,3.248.084,5.474,2.632,5.49,5.799.053,10.806,0,21.613,0,32.419v33.648c0,.193,0,.386,0,.58,0,2.574,4,2.578,4,0h0Z"/><path class="g" d="M36.907,278.248c0-6.674,0-13.347,0-20.021v-32.519c0-2.675-.024-5.35,0-8.025.027-2.965,3.01-2.519,5.194-2.517,2.666.003,5.331.005,7.997.006,1.089,0,2.178.001,3.267.002.817,0,1.815-.162,2.575.198,1.945.92,1.275,4.329,1.275,6.104,0,2.592,0,5.184,0,7.776,0,6.511,0,13.022,0,19.533,0,9.655-.154,19.325,0,28.979.003.161,0,.323,0,.485,0,2.574,4,2.578,4,0,0-8.629,0-17.258,0-25.887,0-6.853,0-13.706,0-20.559,0-2.843,0-5.685,0-8.528,0-2.162.186-4.426-.055-6.575-.26-2.321-1.794-4.288-3.974-5.123-2.012-.77-4.56-.403-6.677-.404-2.721-.001-5.442-.003-8.163-.006-2.617-.003-5.28-.279-7.375,1.597-2.527,2.264-2.063,5.684-2.063,8.723v31.3c0,8.34-.15,16.696,0,25.035.003.142,0,.285,0,.427,0,2.574,4,2.578,4,0h0Z"/><path class="g" d="M24.684,218.061c3.301,0,6.602,0,9.903,0,1.046,0,2.048-.92,2-2s-.879-2-2-2c-3.301,0-6.602,0-9.903,0-1.046,0-2.048.92-2,2s.879,2,2,2h0Z"/><path class="g" d="M69.437,214.063h-10.223c-1.046,0-2.048.92-2,2s.879,2,2,2h10.223c1.046,0,2.048-.92,2-2s-.879-2-2-2h0Z"/><path class="e" d="M12.182,389.714h69.758c5.59,0,10.121-4.531,10.121-10.121,0-31.186,0-72.378,0-103.563,0-5.59-4.531-10.121-10.121-10.121H12.182c-5.59,0-10.121,4.531-10.121,10.121v103.563c0,5.59,4.531,10.121,10.121,10.121Z"/><path class="g" d="M12.182,391.714c9.843,0,19.686,0,29.529,0h38.176c1.14,0,2.293.044,3.427-.092,5.702-.687,10.156-5.279,10.695-10.994.272-2.881.052-5.873.052-8.764,0-3.234,0-6.468,0-9.702,0-6.65,0-13.3,0-19.95,0-13.602,0-27.203,0-40.805,0-6.407,0-12.813,0-19.22,0-2.866.301-5.904-.277-8.727-.547-2.675-2.114-5.162-4.245-6.855-3.87-3.076-8.348-2.695-12.929-2.695-6.122,0-12.243,0-18.365,0-13.761,0-27.521,0-41.282,0-1.44,0-2.879-.003-4.319,0-3.382.008-6.608,1.126-9.033,3.55-2.374,2.374-3.538,5.56-3.55,8.885-.004,1.011,0,2.021,0,3.032,0,11.534,0,23.067,0,34.601,0,14.941,0,29.882,0,44.822v15.461c0,2.664-.276,5.619.35,8.232,1.298,5.415,6.283,9.13,11.771,9.222,2.575.043,2.575-3.957,0-4-4.492-.076-8.057-3.639-8.121-8.134-.009-.629,0-1.258,0-1.887v-11.74c0-13.878,0-27.757,0-41.635,0-13.042,0-26.084,0-39.126,0-2.916-.007-5.831,0-8.747.007-2.549.881-4.902,2.851-6.6,1.749-1.507,3.875-1.936,6.102-1.936,11.391,0,22.781,0,34.172,0,11.327,0,22.654,0,33.981,0,2.32,0,4.53.509,6.282,2.153,1.806,1.695,2.601,3.904,2.611,6.345.012,2.98,0,5.96,0,8.939,0,12.842,0,25.684,0,38.526,0,13.174,0,26.349,0,39.523,0,3.085,0,6.171,0,9.256,0,1.426,0,2.851,0,4.277,0,1.377.128,2.815-.134,4.172-.75,3.886-4.156,6.564-8.062,6.613-10.062.126-20.133,0-30.196,0-12.447,0-24.894,0-37.341,0h-2.146c-2.574,0-2.578,4,0,4Z"/><path class="g" d="M23.507,294.73c0,17.163,0,34.325,0,51.488,0,4.892,0,9.784,0,14.675h4c0-.674,0-1.348,0-2.022,0-2.574-4-2.578-4,0,0,.674,0,1.348,0,2.022,0,2.574,4,2.578,4,0,0-17.163,0-34.325,0-51.488v-14.675c0-2.574-4-2.578-4,0h0Z"/><path class="g" d="M45.061,294.73c0,17.163,0,34.325,0,51.488v14.675h4c0-.674,0-1.348,0-2.022,0-2.574-4-2.578-4,0,0,.674,0,1.348,0,2.022,0,2.574,4,2.578,4,0,0-17.163,0-34.325,0-51.488v-14.675c0-2.574-4-2.578-4,0h0Z"/><path class="g" d="M66.615,294.73c0,17.163,0,34.325,0,51.488,0,4.892,0,9.784,0,14.675h4c0-.674,0-1.348,0-2.022,0-2.574-4-2.578-4,0,0,.674,0,1.348,0,2.022,0,2.574,4,2.578,4,0,0-17.163,0-34.325,0-51.488v-14.675c0-2.574-4-2.578-4,0h0Z"/><path class="i" d="M14.602,392.296c-5.241,0-8.863,4.059-8.863,8.809,0,5.314,3.7,8.974,8.864,8.974,5.362,0,8.864-3.694,8.864-8.974,0-4.782-3.642-8.809-8.864-8.809Z"/><path class="i" d="M79.519,392.296c-5.241,0-8.863,4.059-8.863,8.809,0,5.314,3.7,8.974,8.864,8.974,5.362,0,8.864-3.694,8.864-8.974,0-4.782-3.642-8.809-8.864-8.809Z"/><path class="g" d="M14.602,390.296c-4.744.061-8.931,2.967-10.373,7.537-1.324,4.196.001,9.228,3.505,11.958s8.73,3.05,12.589.844c3.973-2.271,5.637-6.972,4.98-11.355-.792-5.285-5.475-8.917-10.702-8.984-2.575-.033-2.576,3.967,0,4,3.13.04,5.744,1.901,6.581,4.807.791,2.744.01,5.856-2.163,7.617.262-.212-.28.194-.266.185-.117.078-.236.152-.357.223-.184.108-.372.208-.563.302-.609.302.153-.047-.218.099-.777.307-1.608.481-2.272.525-1.555.103-3.028-.14-4.23-.797-2.452-1.339-3.705-4.249-3.34-7.022.467-3.538,3.29-5.894,6.828-5.94,2.572-.033,2.579-4.033,0-4Z"/><path class="g" d="M79.519,390.296c-4.744.061-8.931,2.967-10.373,7.537-1.324,4.196.001,9.228,3.505,11.958s8.73,3.05,12.589.844c3.973-2.271,5.637-6.972,4.98-11.355-.792-5.285-5.475-8.917-10.702-8.984-2.575-.033-2.576,3.967,0,4,3.13.04,5.744,1.901,6.581,4.807.791,2.744.01,5.856-2.163,7.617.262-.212-.28.194-.266.185-.117.078-.236.152-.357.223-.184.108-.372.208-.563.302-.609.302.153-.047-.218.099-.777.307-1.608.481-2.272.525-1.555.103-3.028-.14-4.23-.797-2.452-1.339-3.705-4.249-3.34-7.022.467-3.538,3.29-5.894,6.828-5.94,2.572-.033,2.579-4.033,0-4Z"/><path class="e" d="M45.217,192.176c2.919.202,5.86.323,8.15,1.893,1.549,1.062,4.283,4.319,6.059,7.094,1.06,1.656,2.087,4.325,2.201,6.286.114,1.961-1.237,4.15-3.205,4.199-1.771.044-2.892-1.514-3.87-3.105,2.507,1.492,1.91,5.73.181,7.015-1.125.836-2.736.963-3.979.313-.825-.432-1.409-1.136-1.905-1.93-.391,1.555-.477,3.106-1.504,4.27-.721.817-1.951,1.182-3.033,1.042-1.098-.142-2.079-.646-2.686-1.57,0,0-.811-1.234-1.942-2.956.811,2.231.787,3.419.199,5.006-.228.616-1.446,1.402-2.13,1.508-.834.129-1.989-.152-2.388-.436-1.79-1.272-5.239-5.465-6.129-6.61-1.573-2.023-3.916-3.345-5.48-5.375-.76-.987-2.165-5.046-.22-7.805,1.544-2.366,3.148-4.793,5.479-6.394,2.153-1.479,5.542-4.77,9.819-3.752,1.912.947,4.142,1.152,6.384,1.307Z"/><path class="g" d="M48.273,202.979c1.451,1.784,2.767,3.652,3.97,5.612.979,1.595,1.947,3.368,3.608,4.354,4.236,2.516,8.211-2.022,7.705-6.175-.548-4.502-3.292-8.33-6.209-11.649-1.206-1.372-2.528-2.701-4.211-3.471-2.003-.917-4.163-1.194-6.34-1.364-1.987-.155-4.003-.182-5.927-.761-1.033-.311-1.893-.717-2.993-.814-1.066-.094-2.179.033-3.209.32-1.891.527-3.565,1.58-5.129,2.735-1.625,1.2-3.263,2.337-4.587,3.883-1.39,1.623-2.919,3.542-3.759,5.52-.786,1.85-.78,3.926-.318,5.861.957,4.015,4.664,5.735,7.085,8.754,1.113,1.388,2.259,2.752,3.472,4.055,1.236,1.328,2.584,2.874,4.433,3.266,2.332.495,5.048-.478,5.948-2.842.839-2.204.43-4.408-.38-6.551-.382-1.01-1.349-1.702-2.46-1.397-.968.266-1.781,1.445-1.397,2.46.515,1.361.931,2.559.53,3.985-.082.293.016.071.083-.017-.07.092-.184.197-.284.257-.145.086-.308.231-.476.269-.52.12-1.062-.201-1.175-.295-1.971-1.634-3.64-3.743-5.237-5.733-.981-1.223-2.076-2.256-3.264-3.279-.966-.832-2.231-1.772-2.706-2.937-.421-1.032-.647-2.417-.41-3.57.307-1.491,1.56-2.916,2.454-4.114,1.75-2.343,4.334-4.321,6.897-5.726,1.187-.651,2.67-1.174,4.044-.884.775.164,1.516.598,2.298.796.887.224,1.799.35,2.707.456,2.979.348,6.562-.03,9.172,1.714,1.021.682,2.081,1.956,2.944,2.992,1.094,1.315,2.165,2.721,2.984,4.227.747,1.373,1.633,3.315,1.499,4.924-.081.977-.858,2.317-1.926,1.546-1.239-.896-1.976-2.787-2.782-4.037-1.169-1.812-2.464-3.527-3.825-5.2-.682-.839-2.12-.709-2.828,0-.829.829-.684,1.988,0,2.828h0Z"/><path class="g" d="M54.198,211.396c.043.239.048.254.015.046.009.098.015.195.017.293.007.197,0,.392-.011.588-.013.146-.008.131.016-.046-.02.128-.045.255-.073.381-.043.186-.104.366-.155.549-.107.388.127-.171-.083.197-.087.153-.173.299-.266.448.224-.356-.032.009-.106.092-.257.288.202-.134-.147.095-.212.104-.224.12-.036.047-.089.036-.179.067-.27.093-.07.021-.589.124-.387.101.186-.021-.417-.004-.497-.008.348.017-.109-.032-.22-.055-.464-.097.186.15-.231-.076-.159-.086-.313-.178-.46-.285.325.236-.07-.087-.133-.151-.05-.051-.423-.491-.309-.34.123.164-.175-.264-.21-.318-.117-.181-.228-.365-.335-.552-.186-.323-.36-.653-.537-.981-.42-.781-.871-1.544-1.348-2.291-1.094-1.714-2.328-3.336-3.622-4.903-.669-.81-2.145-.744-2.828,0-.79.861-.714,1.964,0,2.828,1.36,1.646,2.635,3.418,3.78,5.373,1.058,1.807,1.889,3.785,3.747,4.937,2.07,1.283,5.027,1.041,6.815-.636,1.731-1.624,2.161-4.254,1.732-6.492-.197-1.03-1.489-1.711-2.46-1.397-1.098.355-1.608,1.357-1.397,2.46h0Z"/><path class="g" d="M46.618,214.787c-.084.392-.17.784-.289,1.167-.013.042-.181.51-.1.312.06-.146-.162.304-.202.371-.052.087-.27.347-.097.158-.046.05-.445.367-.144.165-.069.046-.536.294-.179.138-.142.062-.296.103-.446.14-.158.039-.405.049-.114.033-.186.01-.369,0-.554,0,.391-.001-.087-.024-.188-.049-.173-.043-.348-.094-.511-.163.438.186-.512-.43-.167-.117-.131-.119-.262-.242-.371-.382.259.332-.141-.252-.149-.265-1.755-2.714-3.351-5.494-5.613-7.836-.728-.754-2.106-.787-2.828,0-.743.81-.777,2.024,0,2.828,1.343,1.391,2.141,2.509,3.206,4.191,1.02,1.61,1.903,3.568,3.467,4.717,1.537,1.129,3.741,1.402,5.505.689,2.187-.884,3.163-2.834,3.632-5.033.218-1.021-.302-2.211-1.397-2.46-1.006-.229-2.227.303-2.46,1.397h0Z"/><path class="h" d="M112.145,99.339l-10.299,36.526c-.618,2.191.655,4.468,2.846,5.085,5.369,1.514,13.565,3.825,18.401,5.188,2.191.618,4.463-.659,5.08-2.85l10.299-36.526c.618-2.191-.658-4.468-2.849-5.086l-18.393-5.186c-2.191-.618-4.468.658-5.086,2.849Z"/><path class="g" d="M110.217,98.808c-2.315,8.21-4.63,16.42-6.945,24.63l-3.209,11.382c-.739,2.62-.172,5.359,2.099,7.058,1.687,1.261,4.095,1.593,6.092,2.156,2.152.607,4.303,1.213,6.455,1.82,2.124.599,4.248,1.198,6.371,1.796s4.116.987,6.153-.158c1.845-1.037,2.625-2.799,3.164-4.711l3.482-12.35c1.515-5.373,3.03-10.745,4.544-16.118l1.521-5.396c.388-1.376.813-2.669.605-4.136-.431-3.049-2.766-4.574-5.481-5.339l-6.794-1.916-7.772-2.191c-1.856-.523-3.729-1.255-5.685-.854-2.256.463-3.9,2.19-4.602,4.327-.805,2.451,3.056,3.502,3.857,1.063.677-2.062,2.574-1.467,4.101-1.036l6.644,1.873,7.355,2.074c1.1.31,2.942.499,3.808,1.335.992.959.56,2.127.245,3.242l-1.291,4.578-4.115,14.595-3.754,13.315c-.264.936-.486,1.899-.796,2.822-.282.842-.873,1.494-1.798,1.617-.763.101-1.606-.29-2.33-.494-.893-.252-1.785-.503-2.678-.755-4.093-1.154-8.186-2.308-12.279-3.462-1.454-.41-3.584-.696-3.495-2.672.014-.311.113-.603.195-.902.915-3.318,1.868-6.626,2.802-9.939,2.413-8.559,4.826-17.118,7.24-25.677l.145-.514c.7-2.482-3.159-3.541-3.857-1.063Z"/><path class="e" d="M127.279,158.141c3.388-.105,7.957-4.553,9.482-9.187,1.418-4.308,2.386-8.456.641-12.929-1.588-4.07-5.014-6.324-9.148-7.788-.576-.179-1.757-.553-1.757-.553-2.035-.645-4.18-.788-5.565.456-1.385,1.244-1.736,3.397-.553,4.917-1.993-.14-3.514.307-4.319,1.923-.804,1.616-.719,3.224.636,4.197-1.215-.005-2.175,1.453-2.415,2.593-.24,1.14-.323,3.158.902,3.834-1.201.305-1.556,1.821-1.755,3.314-.136,1.022.455,2.911,1.909,4.322,3.81,3.697,8.659,5.003,11.942,4.901Z"/><path class="g" d="M127.279,160.141c3.855-.24,6.986-3.183,9.129-6.17,2.526-3.52,3.881-8.444,3.93-12.748s-1.657-8.613-5.007-11.375c-2.735-2.255-6.421-3.921-9.936-4.485-2.529-.406-5.09.082-6.658,2.274-1.355,1.894-1.422,4.512-.083,6.429l1.727-3.009c-2.315-.121-4.623.538-5.887,2.624-1.338,2.209-1.322,5.198.789,6.91l1.414-3.414c-4.568.433-6.342,7.601-2.522,10.154l.478-3.655c-2.295.816-3.239,3.264-3.24,5.577,0,2.421,1.534,4.605,3.297,6.118,3.451,2.961,7.98,4.859,12.57,4.771,2.571-.049,2.579-4.049,0-4-2.902.055-5.741-.894-8.173-2.448-1.306-.834-2.782-1.905-3.415-3.372-.177-.411-.291-.817-.28-1.244.009-.346.118-.749.223-1.082.083-.262.318-.546.082-.462,1.651-.587,1.951-2.671.478-3.655-.165-.11-.048-1.19-.028-1.335.038-.275.109-.547.229-.795.123-.256.542-.592.303-.569,1.518-.144,2.899-2.21,1.414-3.414-.711-.577-.721-1.406-.109-2.158.558-.686,1.594-.589,2.378-.547,1.449.076,2.583-1.783,1.727-3.009-.961-1.377-.068-2.797,1.559-2.849,1.452-.046,3.059.607,4.41,1.094,3.208,1.157,6.215,3.21,7.484,6.495,1.548,4.009.617,9.09-1.231,12.878-1.227,2.514-3.969,6.284-7.049,6.476-2.557.159-2.575,4.16,0,4Z"/><path class="g" d="M119.849,134.985c1.536.428,2.998,1.07,4.482,1.644-.608-.235.108.047.27.118.209.091.418.184.626.279.393.179.784.363,1.171.556.616.308,1.242.629,1.792,1.048.384.292,1.1.323,1.541.202.464-.128.967-.486,1.195-.919.245-.464.368-1.026.202-1.541-.171-.529-.481-.862-.919-1.195-1.379-1.05-3.124-1.694-4.707-2.359-1.497-.629-3.022-1.252-4.589-1.689-1.007-.281-2.221.346-2.46,1.397-.241,1.06.318,2.16,1.397,2.46h0Z"/><path class="g" d="M116.67,141.436c1.511.317,2.989.799,4.434,1.337.393.146.783.298,1.171.455.091.037.182.074.272.111.239.098.026.043-.073-.032.16.12.412.178.595.259.715.319,1.419.66,2.106,1.035.918.501,2.222.257,2.736-.718.494-.935.263-2.201-.718-2.736-1.565-.854-3.221-1.553-4.889-2.18-1.49-.56-3.013-1.061-4.573-1.389-1.021-.214-2.21.299-2.46,1.397-.228,1.002.302,2.231,1.397,2.46h0Z"/><path class="g" d="M115.184,147.604c.265.029-.281-.038-.284-.041.029.024.174.027.219.035.14.024.28.051.419.081.292.062.582.136.87.216.701.195,1.39.429,2.07.685.346.13.684.284,1.031.409-.191-.069-.319-.136-.052-.021.081.035.162.07.242.106.181.08.361.162.541.246.692.322,1.372.669,2.035,1.047.909.518,2.228.245,2.736-.718.502-.95.253-2.183-.718-2.736-1.515-.863-3.121-1.576-4.751-2.191-1.416-.534-2.851-.952-4.358-1.119-.476-.053-1.09.261-1.414.586-.347.347-.608.916-.586,1.414.053,1.183.882,1.876,2,2h0Z"/></g></svg>